<svg id="Artwork" xmlns="http://www.w3.org/2000/svg" viewBox="0 0 589.46 595.28"><defs><style>.cls-1{fill:#fff;}.cls-2{fill:#cb9700;}.cls-3{fill:#005d99;}</style></defs><title>Everlast Academy - Brandmark</title><circle class="cls-1" cx="294.73" cy="297.64" r="261.59"/><path class="cls-2" d="M294.73,561.83c-145.68,0-264.19-118.52-264.19-264.19S149.05,33.45,294.73,33.45,558.92,152,558.92,297.64,440.4,561.83,294.73,561.83Zm0-523.19c-142.82,0-259,116.19-259,259s116.18,259,259,259,259-116.19,259-259S437.54,38.64,294.73,38.64Z"/><path class="cls-2" d="M310.51,212.92a76.28,76.28,0,0,1,21.87,3.22c1.57.34,3.15.66,4.7,1.08-27.73-11.36-58.37-11-87,3.84-2.24,1.17-4.41,2.42-6.55,3.72a96,96,0,0,0-23.1,18.64,106.1,106.1,0,0,0-21,34.68l43.52-21.82C253.34,233.66,280.31,212.92,310.51,212.92Z"/><path class="cls-3" d="M441.82,398.29l0,0c-2.13-1.05-4.32-2-6.54-2.81l-.74-.28-1.35-.46A77.17,77.17,0,0,0,378.86,396,75.87,75.87,0,0,0,364,403.77l-.18.1a122.25,122.25,0,0,1-50.58,17.77A123.64,123.64,0,0,1,294.79,423c-68.59,0-124.2-55.82-124.2-124.67S226.2,173.7,294.79,173.7a123.47,123.47,0,0,1,82.81,31.77A126,126,0,0,1,393,222.06a86.35,86.35,0,0,0-47.16,23.64,185.72,185.72,0,0,1-63.72,42.37c-1.82.73-3.67,1.38-5.51,2a160.63,160.63,0,0,1-57,11.23c-3.19.11-6.36.12-9.54.08l-14.72-.58c.08,1.29.17,2.58.31,3.87.05.69.07,1.35.13,2a73.53,73.53,0,0,0,6,22.36c.53,1.19,1.14,2.31,1.71,3.46,7.28,15.53,18.12,25.76,31.17,31.65l.13.08v0c22.74,10.21,52,7.42,80.24-2.55a204.52,204.52,0,0,0,54.2-30.35,207.57,207.57,0,0,1,49.69-29.49c23.84-9.87,43.27-12.22,53.27-12.7a192,192,0,0,1,25.37-.32C492.92,181.62,404,96.09,294.84,96.09c-112.08,0-202.95,90.24-202.95,201.55s90.87,201.55,203,201.55A203.12,203.12,0,0,0,462.7,410.92q-1.95-1.49-3.7-2.71A111.41,111.41,0,0,0,441.82,398.29Z"/></svg>